<svg xmlns="http://www.w3.org/2000/svg" width="46.667" height="70" viewBox="0 0 46.667 70">
  <g id="Logo" transform="translate(-445.023 -156.832)">
    <path id="Path_251" data-name="Path 251" d="M488.352,166.36h3.338v-9.283h-3.338Zm-7.909-6.843H477.5v-2.44h9.1v2.44h-2.883v6.842h-3.281Zm-10.126,3.951c.172.684.611.943,1.506.943.794,0,1.235-.271,1.235-.672,0-.581-.6-.632-1.8-.916a10.91,10.91,0,0,1-2.769-.891,2.408,2.408,0,0,1-1.18-2.143c0-1.8,1.563-2.956,4.291-2.956,2.64,0,4.188,1.045,4.374,2.917h-3.11c-.1-.555-.527-.813-1.322-.813-.7,0-1.037.206-1.037.632,0,.49.527.581,1.519.814a11.2,11.2,0,0,1,2.927.877,2.365,2.365,0,0,1,1.305,2.169c0,2.015-1.59,3.189-4.573,3.189-2.739,0-4.359-1.174-4.558-3.15Zm-13.179-6.391H465.3V159.3h-4.885v1.239h4.132v2.131h-4.132V164.1H465.5v2.26h-8.365Zm-12.115,0H448.3v3.151h3.053v-3.151h3.281v9.283h-3.281v-3.6H448.3v3.6h-3.281Zm38.919,61.7h3.55a5.917,5.917,0,0,1,3.011.523,2.384,2.384,0,0,1,1.188,2.2c0,1.743-1.164,2.714-3.323,2.714h-1.656v2.4h-2.769ZM487.6,222.3c.983,0,1.45-.109,1.45-.8,0-.72-.479-.807-1.45-.807h-.889v1.6Zm-10.683-3.521V223.6c0,.862.336,1.243,1.33,1.243s1.307-.381,1.307-1.243v-4.829h2.77V223.8c0,1.962-1.416,3.031-4.078,3.031s-4.1-1.069-4.1-3.031v-5.025Zm-8.489-.207c2.77,0,4.474,1.58,4.474,4.131s-1.7,4.132-4.474,4.132-4.485-1.581-4.485-4.132S465.659,218.569,468.428,218.569Zm0,6.29c1.175,0,1.679-.687,1.679-2.159s-.5-2.158-1.679-2.158-1.691.687-1.691,2.158S467.254,224.859,468.428,224.859Zm-13.261-6.083h4.125c2.471,0,3.6.578,3.6,2.256a1.914,1.914,0,0,1-1.391,1.94c.96.185,1.357.676,1.4,1.744l.048,1.091c.012.337.012.49.252.512v.295h-2.8a3.851,3.851,0,0,1-.155-.818v-.784c0-.818-.325-1.1-1.175-1.1H457.9v2.7h-2.734Zm3.993,3.368c.79,0,1.162-.142,1.162-.731,0-.632-.4-.741-1.235-.741H457.9v1.472Zm-7.48,3.793a3.674,3.674,0,0,1-2.675.895c-2.435,0-3.982-1.537-3.982-4.132,0-2.616,1.668-4.131,4.522-4.131,2.267,0,3.693,1.08,3.946,2.91h-2.627a1.348,1.348,0,0,0-1.391-.959c-1.1,0-1.655.774-1.655,2.31,0,1.417.552,2.115,1.68,2.115a1.456,1.456,0,0,0,1.559-.948h-1.248v-1.679h3.79v4.3h-1.787Zm24.213-18.519v2.78h11.046V176.048h-4.123v31.371Zm-21.064,0v2.78h10.606V196.773h5.87V194.15h-9.787v13.269Zm10.606-23.312h0Zm-3.917,0h3.917v-8.059h-3.917Zm28.048,29.657H447V170.4h42.565Zm-44.544-45.345h0Zm46.667,0H445.023v47.763H491.69Z" fill="#12100b"/>
    <path id="Path_252" data-name="Path 252" d="M484.487,214.022V225.6H474.7V214.022H463.189v34.895H474.7V235.648h9.788v13.268H496V214.022H484.487" transform="translate(-13.182 -41.498)" fill="#d21c1a" fill-rule="evenodd"/>
  </g>
</svg>
